<svg xmlns="http://www.w3.org/2000/svg" viewBox="0 0 750 500"><g id="freepik--Floor--inject-70"><path d="M703.69,469.44c0,.14-147.17.26-328.67.26s-328.71-.12-328.71-.26,147.14-.26,328.71-.26S703.69,469.29,703.69,469.44Z" style="fill:#263238"></path></g><g id="freepik--Screen--inject-70"><path d="M190.82,55.53h356a.27.27,0,0,1,.27.27V342.13a12,12,0,0,1-12,12H202.56a12,12,0,0,1-12-12V55.81a.27.27,0,0,1,.27-.27Z" style="fill:#fff"></path><path d="M197.58,55.53H536.3A10.75,10.75,0,0,1,547,66.28V84.61a0,0,0,0,1,0,0H190.55a0,0,0,0,1,0,0v-22A7,7,0,0,1,197.58,55.53Z" style="fill:#e0e0e0"></path><path d="M208.91,69.71a3.38,3.38,0,1,1-3.38-3.37A3.38,3.38,0,0,1,208.91,69.71Z" style="fill:#fff"></path><path d="M219.16,69.71a3.38,3.38,0,1,1-3.38-3.37A3.38,3.38,0,0,1,219.16,69.71Z" style="fill:#fff"></path><path d="M229.42,69.71A3.38,3.38,0,1,1,226,66.34,3.38,3.38,0,0,1,229.42,69.71Z" style="fill:#fff"></path><path d="M284.43,236.55H224.31a4.55,4.55,0,0,1-4.55-4.55h0a4.55,4.55,0,0,1,4.55-4.55h60.12A4.55,4.55,0,0,1,289,232h0A4.55,4.55,0,0,1,284.43,236.55Z" style="fill:#e0e0e0"></path><path d="M284.43,257.67H224.31a4.55,4.55,0,0,1-4.55-4.54h0a4.55,4.55,0,0,1,4.55-4.55h60.12a4.55,4.55,0,0,1,4.54,4.55h0A4.54,4.54,0,0,1,284.43,257.67Z" style="fill:#e0e0e0"></path><path d="M284.43,278.8H224.31a4.55,4.55,0,0,1-4.55-4.54h0a4.55,4.55,0,0,1,4.55-4.55h60.12a4.54,4.54,0,0,1,4.54,4.55h0A4.54,4.54,0,0,1,284.43,278.8Z" style="fill:#e0e0e0"></path><rect x="219.76" y="290.84" width="30.26" height="9.1" rx="4.55" style="fill:#e0e0e0"></rect><path d="M324.88,330.54c-.14,0-.26-54.72-.26-122.21s.12-122.21.26-122.21.26,54.71.26,122.21S325,330.54,324.88,330.54Z" style="fill:#263238"></path><path d="M374.1,121.12H352.94a4.55,4.55,0,0,1-4.55-4.55h0a4.55,4.55,0,0,1,4.55-4.55H374.1a4.55,4.55,0,0,1,4.55,4.55h0A4.55,4.55,0,0,1,374.1,121.12Z" style="fill:#e0e0e0"></path><path d="M371.88,188.36H350.73a4.55,4.55,0,0,1-4.55-4.55h0a4.55,4.55,0,0,1,4.55-4.55h21.15a4.55,4.55,0,0,1,4.55,4.55h0A4.55,4.55,0,0,1,371.88,188.36Z" style="fill:#e0e0e0"></path><path d="M326.3,158.62c0-.15,48.86-.27,109.11-.27s109.12.12,109.12.27-48.85.26-109.12.26S326.3,158.76,326.3,158.62Z" style="fill:#263238"></path><rect x="348.39" y="204.43" width="78.69" height="59.14" rx="4.59" style="fill:#FF725E"></rect><g style="opacity:0.30000000000000004"><polygon points="351.78 263.58 375.88 226.81 392.9 249.81 404.45 237.52 423.7 263.18 351.78 263.58"></polygon></g><g style="opacity:0.30000000000000004"><path d="M400,221.26A6.2,6.2,0,1,1,395,216.2,6.2,6.2,0,0,1,400,221.26Z"></path></g><rect x="443.83" y="204.43" width="78.69" height="59.14" rx="4.59" style="fill:#455a64"></rect><g style="opacity:0.30000000000000004"><polygon points="447.22 263.58 471.31 226.81 488.34 249.81 499.88 237.52 519.14 263.18 447.22 263.58"></polygon></g><g style="opacity:0.30000000000000004"><path d="M495.48,221.26a6.2,6.2,0,1,1-5.06-5.06A6.21,6.21,0,0,1,495.48,221.26Z"></path></g><rect x="348.4" y="279.46" width="78.69" height="59.14" rx="4.59" style="fill:#455a64"></rect><g style="opacity:0.30000000000000004"><polygon points="351.78 338.6 375.88 301.84 392.9 324.84 404.45 312.55 423.7 338.2 351.78 338.6"></polygon></g><g style="opacity:0.30000000000000004"><path d="M400.05,296.29a6.2,6.2,0,1,1-5.06-5.06A6.21,6.21,0,0,1,400.05,296.29Z"></path></g><path d="M517.2,179.71a7.49,7.49,0,0,1,1.82-.79l.37-1.79,3-.06.44,1.78a7.59,7.59,0,0,1,1.84.73l1.53-1,2.18,2.11-.95,1.57a7.26,7.26,0,0,1,.79,1.81l1.8.37.05,3-1.78.43a7.28,7.28,0,0,1-.73,1.84l1,1.53-2.11,2.19-1.56-1a7.46,7.46,0,0,1-1.82.78l-.37,1.8-3,0-.44-1.78a7.4,7.4,0,0,1-1.84-.72l-1.53,1-2.18-2.1.95-1.57a7.26,7.26,0,0,1-.79-1.81l-1.8-.38-.05-3,1.78-.44a8,8,0,0,1,.72-1.84l-1-1.53,2.11-2.18,1.56,1Zm2.06,4.66a2.51,2.51,0,1,0,3.54-.06A2.5,2.5,0,0,0,519.26,184.37Z" style="fill:#e0e0e0"></path><path d="M515.25,142.14h0A18.16,18.16,0,0,1,497.1,124h0a18.16,18.16,0,0,1,18.15-18.15h0A18.15,18.15,0,0,1,533.4,124h0A18.15,18.15,0,0,1,515.25,142.14Z" style="fill:#FF725E"></path><path d="M507,129.7a10.61,10.61,0,0,0,16.31-9.42,7.54,7.54,0,0,0,1.86-1.92,7.7,7.7,0,0,1-2.14.58,3.74,3.74,0,0,0,1.64-2.06,7.23,7.23,0,0,1-2.37.9,3.73,3.73,0,0,0-6.35,3.4,10.52,10.52,0,0,1-7.68-3.89,3.73,3.73,0,0,0,1.15,5,3.72,3.72,0,0,1-1.69-.47,3.73,3.73,0,0,0,3,3.7,3.78,3.78,0,0,1-1.68.07,3.72,3.72,0,0,0,3.48,2.58A7.51,7.51,0,0,1,507,129.7Z" style="fill:#fff"></path><path d="M412,141.63h0a17.9,17.9,0,0,1-17.89-17.9h0A17.89,17.89,0,0,1,412,105.84h0a17.89,17.89,0,0,1,17.89,17.89h0A17.9,17.9,0,0,1,412,141.63Z" style="fill:#FF725E"></path><path d="M412,115.69c2.62,0,2.93,0,4,.06a5.44,5.44,0,0,1,1.82.33,3.08,3.08,0,0,1,1.13.74,3,3,0,0,1,.74,1.13,5.44,5.44,0,0,1,.33,1.82c.05,1,.06,1.34.06,4s0,2.93-.06,4a5.56,5.56,0,0,1-.33,1.82,3.25,3.25,0,0,1-1.87,1.86,5.36,5.36,0,0,1-1.82.34c-1,.05-1.34.06-4,.06s-2.93,0-4-.06a5.48,5.48,0,0,1-1.82-.34,3.2,3.2,0,0,1-1.86-1.86,5.76,5.76,0,0,1-.34-1.82c0-1-.05-1.35-.05-4s0-2.93.05-4a5.63,5.63,0,0,1,.34-1.82,3.06,3.06,0,0,1,.73-1.13,3.17,3.17,0,0,1,1.13-.74,5.56,5.56,0,0,1,1.82-.33c1,0,1.35-.06,4-.06m0-1.77c-2.67,0-3,0-4,.06a7.36,7.36,0,0,0-2.38.46,5,5,0,0,0-2.87,2.87,7,7,0,0,0-.45,2.38c0,1-.06,1.38-.06,4s0,3,.06,4a7.13,7.13,0,0,0,.45,2.38A5,5,0,0,0,405.6,133a7.13,7.13,0,0,0,2.38.45c1,.05,1.38.06,4,.06s3,0,4-.06a7,7,0,0,0,2.38-.45,5,5,0,0,0,2.87-2.87,7.11,7.11,0,0,0,.46-2.38c.05-1,.06-1.38.06-4s0-3-.06-4a7,7,0,0,0-.46-2.38,5,5,0,0,0-2.87-2.87,7.25,7.25,0,0,0-2.38-.46c-1,0-1.38-.06-4-.06" style="fill:#fff"></path><path d="M412,118.7a5,5,0,1,0,5,5,5,5,0,0,0-5-5m0,8.3a3.27,3.27,0,1,1,3.27-3.27A3.26,3.26,0,0,1,412,127" style="fill:#fff"></path><path d="M418.44,118.5a1.18,1.18,0,0,1-2.35,0,1.18,1.18,0,1,1,2.35,0" style="fill:#fff"></path><path d="M464,142.14h0A18.15,18.15,0,0,1,445.86,124h0A18.15,18.15,0,0,1,464,105.84h0A18.15,18.15,0,0,1,482.15,124h0A18.15,18.15,0,0,1,464,142.14Z" style="fill:#FF725E"></path><path d="M461.24,135h4.42V123.9h3.08l.33-3.71h-3.41v-2.11c0-.87.17-1.22,1-1.22h2.39V113H466c-3.29,0-4.77,1.45-4.77,4.22v3h-2.3v3.75h2.3Z" style="fill:#fff"></path><path d="M536.18,354.14l.83-.05a11.82,11.82,0,0,0,2.44-.48,11,11,0,0,0,3.57-1.95,10.91,10.91,0,0,0,3.26-4.55,10.26,10.26,0,0,0,.68-3.31c0-1.19,0-2.46,0-3.79q0-4,0-8.7c0-6.29,0-13.55,0-21.72,0-32.68-.05-80-.08-138.39,0-29.22,0-61.22,0-95.57V69.16c0-2.17.16-4.36-.65-6.37A9.9,9.9,0,0,0,544.65,60a10.41,10.41,0,0,0-2.31-2.23,10.63,10.63,0,0,0-6.08-2H452.78l-251.34,0A10.59,10.59,0,0,0,190.83,66q0,8.3,0,16.55,0,16.51,0,32.8v64.13c0,42.05,0,82.6,0,121.23q0,14.49,0,28.61v14a10.67,10.67,0,0,0,7.56,10.13c2.14.67,4.45.4,6.72.46h46.41l95.58,0,138.38.08,37.63,0,9.78,0,3.34,0-3.34,0-9.78,0-37.63,0-138.38.09-95.58,0H201.65a12.27,12.27,0,0,1-3.45-.47,11.12,11.12,0,0,1-7.88-10.57q0-7,0-14V300.7c0-38.63,0-79.18,0-121.23V82.54q0-8.25,0-16.57a11.14,11.14,0,0,1,11.13-10.7l251.34,0,56.44,0h27a11,11,0,0,1,6.33,2.06,10.41,10.41,0,0,1,2.4,2.33,10.05,10.05,0,0,1,1.59,2.93,10.61,10.61,0,0,1,.65,3.25c0,1.11,0,2.18,0,3.27v6.47c0,34.35,0,66.35,0,95.57,0,58.42-.07,105.71-.09,138.39,0,8.17,0,15.43,0,21.72,0,3.14,0,6,0,8.7,0,1.33,0,2.59,0,3.8a10.19,10.19,0,0,1-.71,3.34,10.88,10.88,0,0,1-6.9,6.51,11,11,0,0,1-2.45.45Z" style="fill:#263238"></path></g><g id="freepik--tab-1--inject-70"><rect x="55.28" y="376.43" width="134.23" height="55.22" rx="11.65" style="fill:#fff"></rect><path d="M177.86,431.65a15.1,15.1,0,0,0,3.56-.63,11.56,11.56,0,0,0,7.22-7,10.71,10.71,0,0,0,.7-3.47c.06-1.24,0-2.58,0-3.95,0-2.77,0-5.77,0-9s0-6.68,0-10.33c0-1.83,0-3.71,0-5.64a36.38,36.38,0,0,0-.24-5.89,11.51,11.51,0,0,0-8.1-8.69c-2.08-.63-4.36-.39-6.67-.43h-7l-30.48,0-69.84,0a11.37,11.37,0,0,0-11.36,11.39v17.82c0,2.92,0,5.82,0,8.68v4.28A13.72,13.72,0,0,0,56,423a11.45,11.45,0,0,0,4.66,6.45,11.28,11.28,0,0,0,3.65,1.58,16.35,16.35,0,0,0,4,.32l57,.06,38.46.1,10.45.06,2.72,0,.93,0-.93,0-2.72,0-10.45.06-38.46.1-57,.06a16.26,16.26,0,0,1-4.09-.33A11.53,11.53,0,0,1,60.34,430a12,12,0,0,1-4.91-6.77A14.12,14.12,0,0,1,55,418.9v-13c0-5.84,0-11.79,0-17.82a12,12,0,0,1,12-12l69.84,0,30.48,0h10.45a12.71,12.71,0,0,1,3.38.47,12,12,0,0,1,8.4,9.06,15.65,15.65,0,0,1,.23,3c0,1,0,2,0,2.94,0,1.93,0,3.81,0,5.64,0,3.65,0,7.1,0,10.33s0,6.22,0,9c0,1.38,0,2.69,0,4a10.77,10.77,0,0,1-.75,3.53,11.77,11.77,0,0,1-3.51,4.89,11.42,11.42,0,0,1-3.89,2.11,11.55,11.55,0,0,1-2.68.49Z" style="fill:#263238"></path><path d="M166.29,407.65H104.82a4.13,4.13,0,0,1-4.13-4.13h0a4.12,4.12,0,0,1,4.13-4.12h61.47a4.11,4.11,0,0,1,4.12,4.12h0A4.12,4.12,0,0,1,166.29,407.65Z" style="fill:#e0e0e0"></path><rect x="74.05" y="394.48" width="19.12" height="19.12" rx="5.14" style="fill:#FF725E"></rect><polygon points="77.01 404.31 78.94 402.39 82.65 405.69 88.86 399.46 90.64 401.39 82.38 409.4 77.01 404.31" style="fill:#fff"></polygon></g><g id="freepik--character-1--inject-70"><path d="M115.09,158.34c2.09-14.47,5.78-30.34,26.44-28.86,0,0,15.56,1.05,20.16,12.29,2.49,6.08,1,28.84,1.6,47.66l2.23,24.2-62.25-11.72S113.79,167.33,115.09,158.34Z" style="fill:#263238"></path><path d="M144.28,135.32l-1.3-1.23-14,5.63a3.89,3.89,0,0,0-3.68,3.77l.13,45.52a12.75,12.75,0,0,0,2.46,8.22l12.82,16.4c4.47,5.91,4.06-7.1,7.6-13.6.25-.46-.82-2.15-.75-2.47a8.08,8.08,0,0,0,.21-1c.42-3.66.44-6.84.44-6.84.25-4,.33-5.67.33-5.63s8.56-1,10.87-12c1.15-5.46.93-13,.61-20.37C159.6,141.49,152.5,135.31,144.28,135.32Z" style="fill:#ffbf9d"></path><path d="M143.58,159.61a1.42,1.42,0,0,1-1.44,1.36,1.36,1.36,0,0,1-1.4-1.35,1.43,1.43,0,0,1,1.44-1.37A1.37,1.37,0,0,1,143.58,159.61Z" style="fill:#263238"></path><path d="M157.27,159.92a1.41,1.41,0,0,1-1.44,1.36,1.36,1.36,0,0,1-1.4-1.35,1.44,1.44,0,0,1,1.44-1.37A1.36,1.36,0,0,1,157.27,159.92Z" style="fill:#263238"></path><path d="M158.59,154.65c-.19.18-1.22-.67-2.75-.74s-2.69.63-2.84.44.12-.41.62-.75a3.93,3.93,0,0,1,2.29-.58,3.85,3.85,0,0,1,2.18.83C158.54,154.23,158.68,154.58,158.59,154.65Z" style="fill:#263238"></path><path d="M143.09,154.81c-.21.16-1.15-.79-2.66-1s-2.74.35-2.88.14.16-.39.7-.67a4,4,0,0,1,2.34-.35,3.78,3.78,0,0,1,2.08,1.05C143.08,154.39,143.18,154.74,143.09,154.81Z" style="fill:#263238"></path><path d="M148.42,165.93a10.84,10.84,0,0,1,2.51-.32c.39,0,.76-.08.84-.34a1.92,1.92,0,0,0-.2-1.17c-.32-1-.65-2-1-3-1.39-4.31-2.37-7.85-2.2-7.9s1.44,3.39,2.83,7.7c.34,1.07.66,2.08,1,3a2.28,2.28,0,0,1,.13,1.54,1,1,0,0,1-.67.54,3.45,3.45,0,0,1-.67.06A9.92,9.92,0,0,1,148.42,165.93Z" style="fill:#263238"></path><path d="M148.57,184.07a28.28,28.28,0,0,1-14.63-4.7s3.35,7.85,14.48,7.37Z" style="fill:#ff9a6c"></path><path d="M147.59,169.58a2.74,2.74,0,0,0-2.41-1.14,2.53,2.53,0,0,0-1.79.84,1.6,1.6,0,0,0-.21,1.82,1.85,1.85,0,0,0,2,.6,5.89,5.89,0,0,0,2-1.06,1.9,1.9,0,0,0,.46-.43.52.52,0,0,0,0-.57" style="fill:#ff9a6c"></path><path d="M143.87,166.77c.25,0,.17,1.65,1.53,2.9s3.14,1.15,3.14,1.39-.41.3-1.16.28a4.13,4.13,0,0,1-2.62-1.06,3.66,3.66,0,0,1-1.18-2.43C143.56,167.15,143.76,166.75,143.87,166.77Z" style="fill:#263238"></path><path d="M144.55,148.86c-.21.38-1.69,0-3.5-.1s-3.32.21-3.5-.2c-.07-.19.23-.54.87-.85a5.77,5.77,0,0,1,2.69-.5,5.6,5.6,0,0,1,2.64.73C144.36,148.3,144.64,148.67,144.55,148.86Z" style="fill:#263238"></path><path d="M158.37,148.09c-.29.33-1.32-.08-2.59-.16s-2.34.12-2.57-.26c-.1-.18.08-.52.57-.83a3.61,3.61,0,0,1,2.13-.46,3.55,3.55,0,0,1,2,.8C158.37,147.56,158.5,147.93,158.37,148.09Z" style="fill:#263238"></path><path d="M125.61,162.92s7.83,2.43,12.26-16.88c1.51-6.6,7.63-11.95,7.63-11.95l-2.48-.75s-15.43,4.35-15.69,4.54-3.9,8-3.9,8Z" style="fill:#263238"></path><path d="M127.54,162.2c0-.83-.82-2.82-1.62-3-2.16-.44-6.09-.47-6.4,5.06-.43,7.54,7.23,6.41,7.26,6.2S127.4,165.05,127.54,162.2Z" style="fill:#ffbf9d"></path><path d="M124.64,167.48s-.14.08-.37.17a1.29,1.29,0,0,1-1,0,3.27,3.27,0,0,1-1.34-3,4.44,4.44,0,0,1,.47-1.86,1.51,1.51,0,0,1,1-.95.67.67,0,0,1,.75.4c.09.22,0,.37.08.38s.17-.11.12-.43a.84.84,0,0,0-.27-.49.94.94,0,0,0-.71-.23,1.84,1.84,0,0,0-1.44,1.09,4.39,4.39,0,0,0-.58,2.08c0,1.52.66,3,1.73,3.37a1.43,1.43,0,0,0,1.22-.14C124.61,167.66,124.66,167.49,124.64,167.48Z" style="fill:#ff9a6c"></path><path d="M130.92,159.22a8.34,8.34,0,0,0,1.13-.22,6.94,6.94,0,0,0,2.69-1.56,10.09,10.09,0,0,0,1.4-1.64,12.73,12.73,0,0,0,1.14-2.21,45.47,45.47,0,0,0,1.62-5.49c.53-2,1.11-3.82,1.74-5.48a30.79,30.79,0,0,1,2-4.26,22.06,22.06,0,0,1,1.72-2.65c.23-.3.42-.52.55-.67s.19-.23.2-.22l-.17.24c-.12.16-.3.39-.51.69a25.82,25.82,0,0,0-1.67,2.68,33.66,33.66,0,0,0-1.92,4.26c-.62,1.65-1.18,3.5-1.71,5.46a44.47,44.47,0,0,1-1.65,5.51,13,13,0,0,1-1.17,2.23,9.5,9.5,0,0,1-1.45,1.65,6.68,6.68,0,0,1-2.76,1.53A4.11,4.11,0,0,1,130.92,159.22Z" style="fill:#263238"></path><path d="M120.61,191.42a1.8,1.8,0,0,1-.09-.36c0-.27-.11-.62-.19-1.08-.16-1-.39-2.34-.67-4.09l.18,0c0,.28.08.58.12.89v0c0,.11.11.22.16.34l-.19.07A73.44,73.44,0,0,1,117.5,175a74.41,74.41,0,0,1-.46-7.86,36.15,36.15,0,0,1,.75-8.62,13.45,13.45,0,0,1,1.37-3.42,18.08,18.08,0,0,1,2.09-2.91c1.53-1.77,3.18-3.3,4.69-4.81l8.1-8,5.49-5.35,1.5-1.44c.16-.16.29-.28.4-.37a.85.85,0,0,1,.14-.12s0,0-.12.14l-.37.39-1.46,1.49-5.4,5.43-8,8c-1.51,1.52-3.16,3.05-4.67,4.8a14.9,14.9,0,0,0-3.38,6.2,36.17,36.17,0,0,0-.74,8.53,73.9,73.9,0,0,0,.43,7.82,75.09,75.09,0,0,0,2.31,12.13l-.19.07-.16-.34v0h0c0-.32-.08-.62-.12-.89l.19,0,.59,4.11c.06.45.11.81.14,1.08S120.61,191.42,120.61,191.42Z" style="fill:#455a64"></path><path d="M121.33,172.16a3.11,3.11,0,1,0,3.1-3.11A3.1,3.1,0,0,0,121.33,172.16Z" style="fill:#455a64"></path><polygon points="125.12 439.01 128.65 469.44 141.99 467.41 142.88 437.42 125.12 439.01" style="fill:#263238"></polygon><path d="M142,461.38s-8.95,7.59-13.94,2l-.25-.91-4.65,24.78a2.74,2.74,0,0,0,1.74,3.17,2.57,2.57,0,0,0,2.71-.75c3.61-4.08,16.86-19.83,16.86-19.83l-.53-4a13,13,0,0,0-1.94-4.5Z" style="fill:#263238"></path><path d="M144.08,466.88,125.4,490.53a2.57,2.57,0,0,0,2.31-.85c10-11.4,16.79-19.83,16.79-19.83Z" style="fill:#e0e0e0"></path><path d="M130.44,478.77c-.14.09-.8-1.23-2.36-1.85a7.76,7.76,0,0,0-3-.36c0-.06.28-.28.86-.41a4,4,0,0,1,2.3.24,4.07,4.07,0,0,1,1.81,1.47C130.43,478.37,130.5,478.75,130.44,478.77Z" style="fill:#455a64"></path><path d="M128.86,482.38a20.57,20.57,0,0,0-2.32-.95,20.08,20.08,0,0,0-2.49-.14,2.84,2.84,0,0,1,2.62-.42C128.19,481.21,129,482.3,128.86,482.38Z" style="fill:#455a64"></path><path d="M133.5,474.07c-.11.14-1.44-1.08-3.48-1.71a24.49,24.49,0,0,0-3.82-.62,7,7,0,0,1,7.3,2.33Z" style="fill:#455a64"></path><path d="M133.51,467.8c-.06.16-1.5-.33-3.32-.26s-3.24.62-3.31.46a5,5,0,0,1,3.29-1A5,5,0,0,1,133.51,467.8Z" style="fill:#263238"></path><path d="M178,463c-.31-.47-3.1-10.66-3.1-10.66l17.26-4.7,2.45,14.68Z" style="fill:#263238"></path><path d="M193.85,458l.59,2.59s19,7.75,19.24,11.51l-37.55.28.47-13.83C182.2,461.22,187.44,460.76,193.85,458Z" style="fill:#263238"></path><path d="M176.13,472.38l.11-3.16,35.95.89s1.67.75,1.49,2Z" style="fill:#e0e0e0"></path><path d="M194.57,460.7c0,.2-.92.29-1.82.92s-1.37,1.44-1.54,1.36.09-1.19,1.19-1.93S194.61,460.53,194.57,460.7Z" style="fill:#455a64"></path><path d="M198.52,462.39c0,.18-.75.52-1.37,1.34s-.79,1.68-1,1.67-.31-1.09.48-2.1S198.51,462.2,198.52,462.39Z" style="fill:#455a64"></path><path d="M200.79,467.32c-.17.05-.43-.91,0-2s1.32-1.49,1.4-1.33-.45.73-.82,1.61S201,467.3,200.79,467.32Z" style="fill:#455a64"></path><path d="M166.26,279s9.53,42.71,17.59,92c6.62,40.52,9.55,84.38,9.55,84.38l-19.51,1.14S162,406.21,152.75,370.09c-8.54-33.31-15.48-50.79-15.48-50.79l-3.91-43.95Z" style="fill:#263238"></path><path d="M112.44,270.46s-17.11,23.13-15.67,47.27c.86,14.44,30.11,142.8,30.11,142.8l17.32-.59-5.53-136.35L144.53,279Z" style="fill:#263238"></path><path d="M165,208.21a3.46,3.46,0,0,1,.1.71c0,.53.09,1.22.15,2.06.14,1.8.23,4.39.29,7.61.12,6.42-.18,15.3-.82,25.07s-1.19,18.62-1.32,25c-.07,3.21-.09,5.8-.07,7.59v2.07a3.68,3.68,0,0,1,0,.72,3.61,3.61,0,0,1-.07-.72c0-.53-.06-1.21-.11-2.06-.09-1.79-.12-4.39-.1-7.61,0-6.42.51-15.28,1.15-25.06s1-18.62,1-25c0-3.21,0-5.8-.12-7.59,0-.86,0-1.54,0-2.07A4,4,0,0,1,165,208.21Z" style="fill:#263238"></path><path d="M176.53,229.83l2.4,4.71-7.1-26.33c-2.06-8.65-5.1-11.15-8.07-12.08l-1.7,1.75,1.25,49.27,1.59,4.09c-.34,7,2.43,10.92,6.19,12.63,5.54,2.53,12.06-.53,14.17-6.24l7.37-22Z" style="fill:#FF725E"></path><path d="M113.7,210.08l7.07,66L159.94,279l3.12-2.67L162,226.46,147.91,191h0s-1.22,12.64-5.09,12.35c-2.63-.2-13.28-7.8-15.43-9.35l-2-6.47Z" style="fill:#fff"></path><path d="M125.33,185.15,119.21,193l-21,5,13.12,63.44-10,24.55A63.59,63.59,0,0,0,98.72,294l-6.15,24.08s21.19,5.77,26.65,2.62,12.12-33.77,14.14-41,5-28.88,3.63-40.4-5-24.42-6.21-30.28S125.33,185.15,125.33,185.15Z" style="fill:#FF725E"></path><path d="M104.51,251l2.79-16.84L98.21,198s-4.25,3-7.07,14.13c-3,11.61-10.55,42.06-10.59,49.55,0,5.54,4.2,16.88,12.64,15.56,16.43-2.57,42.5-12.53,42.5-12.53L132,246.38Z" style="fill:#FF725E"></path><path d="M148.4,187.11l2.62,4.06,12.91,5s3.35,15.19,3.35,19.83-1.92,56.14-1.92,58.57,9.29,35.34,8.48,37.36-10.5,3.44-10.5,3.44-3.63-28.48-3.63-38.18-.41-33.52-2.43-45.24-9.29-40.8-9.29-40.8Z" style="fill:#FF725E"></path><path d="M159.92,282.63s0-.09,0-.25,0-.42,0-.7c0-.67,0-1.58,0-2.72.06-2.41.13-5.81.23-10,.2-8.45.54-20.11.75-33,0-1.61,0-3.2,0-4.77s-.16-3.09-.28-4.6c-.24-3-.48-5.95-.77-8.73s-.6-5.4-1-7.84a32.79,32.79,0,0,0-1.89-6.59,85.47,85.47,0,0,0-4.23-9l-1.3-2.39-.34-.62c-.07-.14-.11-.21-.1-.22a.81.81,0,0,1,.15.2l.38.59c.33.53.81,1.31,1.39,2.34a75.7,75.7,0,0,1,4.39,9,33,33,0,0,1,2,6.65c.44,2.46.77,5.09,1.07,7.87s.54,5.71.8,8.73c.11,1.51.29,3.06.28,4.65s0,3.16,0,4.78c-.21,12.88-.61,24.55-.9,33-.16,4.18-.29,7.59-.39,10,0,1.15-.1,2.06-.13,2.72,0,.28,0,.52,0,.71A.92.92,0,0,1,159.92,282.63Z" style="fill:#263238"></path><path d="M136,263.24a4.34,4.34,0,0,1-.11-.73c-.05-.47-.12-1.18-.18-2.09-.12-1.82-.23-4.46-.18-7.73,0-1.63.1-3.42.23-5.33a23,23,0,0,0-.76-6,98.49,98.49,0,0,0-4.64-13.24c-2-4.61-4-8.93-5.83-12.85a53.09,53.09,0,0,1-2.48-5.66,47.3,47.3,0,0,1-1.32-5.2c-.65-3.2-1-5.82-1.23-7.63-.11-.91-.18-1.61-.23-2.09a3.46,3.46,0,0,1,0-.74,4.47,4.47,0,0,1,.14.73c.08.52.19,1.21.32,2.07.29,1.8.7,4.41,1.39,7.59a49.22,49.22,0,0,0,1.37,5.15,54.06,54.06,0,0,0,2.51,5.59c1.89,3.91,3.92,8.24,5.87,12.85a95.61,95.61,0,0,1,4.63,13.32,23.71,23.71,0,0,1,.72,6.13c-.15,1.91-.24,3.69-.29,5.31-.1,3.26,0,5.89,0,7.71,0,.87.06,1.57.08,2.1A4,4,0,0,1,136,263.24Z" style="fill:#263238"></path><path d="M169.37,250.29a14.67,14.67,0,0,1,.74-3c.56-1.86,1.45-4.4,2.55-7.15s2.19-5.2,3-7a16.22,16.22,0,0,1,1.49-2.76,20.94,20.94,0,0,1-1.16,2.91c-.76,1.79-1.79,4.25-2.89,7s-2,5.25-2.68,7.07A27,27,0,0,1,169.37,250.29Z" style="fill:#263238"></path><path d="M165.8,205.41a4,4,0,0,1,.34.62c.22.41.49,1,.83,1.86a37.69,37.69,0,0,1,2,7.24,53.71,53.71,0,0,1,.71,11.11c-.15,4.19-.63,8.77-1.2,13.56-1.21,9.58-2.06,18.27-2.45,24.58-.22,3.15-.36,5.7-.46,7.47,0,.84-.1,1.51-.13,2a3.16,3.16,0,0,1-.08.71,3.91,3.91,0,0,1,0-.71q0-.78,0-2c0-1.77.12-4.33.29-7.49.3-6.32,1.09-15,2.3-24.61.58-4.79,1.07-9.36,1.24-13.52a56.74,56.74,0,0,0-.59-11,40.74,40.74,0,0,0-1.83-7.22c-.31-.83-.55-1.47-.74-1.9A3.91,3.91,0,0,1,165.8,205.41Z" style="fill:#263238"></path><polygon points="194.1 219.01 187.47 213.74 180.26 221.53 177.19 230.38 187.47 233.75 188.25 228.76 194.1 219.01" style="fill:#ffbf9d"></polygon><path d="M189.06,143.88A62.18,62.18,0,1,1,298,190.34h0a62.17,62.17,0,0,1-108.91-46.46ZM308.72,155a58,58,0,1,0-13.9,32.63A58,58,0,0,0,308.72,155Z" style="fill:#455a64"></path><path d="M189.06,143.88A62.18,62.18,0,1,1,298,190.34h0a62.17,62.17,0,0,1-108.91-46.46ZM308.72,155a58,58,0,1,0-13.9,32.63A58,58,0,0,0,308.72,155Z" style="fill:#263238"></path><path d="M187.22,141.06a62.18,62.18,0,1,1,108.92,46.47h0a62.18,62.18,0,0,1-108.92-46.47Zm119.66,11.11A58,58,0,1,0,293,184.8,58,58,0,0,0,306.88,152.17Z" style="fill:#455a64"></path><path d="M125.73,284.19l-2.17-1.7c-1.93-1.51-1.35-5.5.29-7.58l76.45-89.76,10.18,8-76.36,89.65C132,285.3,128.22,286.14,125.73,284.19Z" style="fill:#455a64"></path><path d="M187.83,207.45a1.21,1.21,0,0,1,1.36-.51,2.67,2.67,0,0,1,1.17.65,12.56,12.56,0,0,1,4.47,8.29c.15,1.37-.05,3-1.21,3.74l-1.47-.66c-.49-.51-1.87-1.31-2.11-2-1-2.79.9-2.19-1.42-7C188.39,209.54,187.42,208.28,187.83,207.45Z" style="fill:#ffbf9d"></path><path d="M188.58,211.49a9.49,9.49,0,0,0-1.73-2,1.92,1.92,0,0,0-1.85-.31c-.93.41-.86,1.13-.62,2.4a14.29,14.29,0,0,0,1.55,4c1.31,2.4,2.56,5.22,4,7.56l.61-.55a.94.94,0,0,0,1.44-.48,3.9,3.9,0,0,0,.11-2A19.42,19.42,0,0,0,188.58,211.49Z" style="fill:#ffbf9d"></path><path d="M187.68,219.05a18.85,18.85,0,0,0-3.86-4.63,4.52,4.52,0,0,0-1.84-1,1.62,1.62,0,0,0-1.64,1.06,2.09,2.09,0,0,0,.43,1.79,85,85,0,0,0,7,9.71l1.82-2.27C190.31,222,188.65,220.7,187.68,219.05Z" style="fill:#ffbf9d"></path><path d="M132.93,248.92l4.31-.49,7.6-8,4.16-4.31a2.88,2.88,0,0,1,1.28-.76l4.43-1.22a2.58,2.58,0,0,1-1,3.24l-2.35,1.54-2,2.91.35.55s15.09.75,16.13,1.79a1.55,1.55,0,0,1-.16,2.41,2.39,2.39,0,0,1-1.12.22s.9,1.68-1.11,3.34c0,0,1.88,2-.9,3.33a4.68,4.68,0,0,1-2.25,2.42A110.28,110.28,0,0,1,149,258.65l-10.65,1.13-3.58,2.8Z" style="fill:#ffbf9d"></path><path d="M164.9,246.81a11.75,11.75,0,0,1-4.08.65,20.18,20.18,0,0,1-4.13-.18,20.64,20.64,0,0,1,4.11-.29A38.43,38.43,0,0,1,164.9,246.81Z" style="fill:#ff9a6c"></path><path d="M163.45,250.16c0,.07-.37.16-1,.31s-1.46.35-2.42.51a20,20,0,0,1-2.46.21,3.85,3.85,0,0,1-1,0c0-.06.36-.23,1-.34s1.5-.18,2.43-.34,1.8-.32,2.43-.38S163.45,250.1,163.45,250.16Z" style="fill:#ff9a6c"></path><path d="M162.84,253.39a17.57,17.57,0,0,1-4,1,9.24,9.24,0,0,0-2.69.71c-.63.31-.89.69-1,.65s.13-.51.79-.94a7.33,7.33,0,0,1,2.78-.89A17.42,17.42,0,0,1,162.84,253.39Z" style="fill:#ff9a6c"></path><path d="M104.51,274.74a3.82,3.82,0,0,1,.57-.22l1.68-.57,6.32-2.05,22-7-.17.26c-.7-5.06-1.47-10.6-2.27-16.37-.15-1-.29-2.09-.43-3.11l.3.22-28,5.31-.28,0,0-.28c.89-5.14,1.61-9.33,2.12-12.28.26-1.42.46-2.54.61-3.35.07-.36.13-.64.17-.87a1.9,1.9,0,0,1,.08-.3,1.43,1.43,0,0,1,0,.31l-.12.88-.5,3.36c-.47,3-1.14,7.16-2,12.32l-.23-.23,28-5.43.26,0,0,.27c.14,1,.29,2.06.43,3.1.79,5.78,1.55,11.32,2.25,16.39l0,.2-.2.06-22.07,6.82-6.36,1.92-1.7.5A4.69,4.69,0,0,1,104.51,274.74Z" style="fill:#263238"></path><path d="M110,226.2c-.1,0-.1-1.71-.46-4.44a44.46,44.46,0,0,0-.89-4.74,42.23,42.23,0,0,0-4.4-10.92,40.68,40.68,0,0,0-2.64-4c-1.63-2.22-2.82-3.45-2.75-3.52a5.67,5.67,0,0,1,.89.82,30.72,30.72,0,0,1,2.16,2.47,40,40,0,0,1,2.76,4,43.18,43.18,0,0,1,2.65,5.36,41.1,41.1,0,0,1,1.79,5.7,35.83,35.83,0,0,1,.8,4.81,29.26,29.26,0,0,1,.16,3.28A6.78,6.78,0,0,1,110,226.2Z" style="fill:#263238"></path><path d="M95.12,260.82a4.94,4.94,0,0,1,.33-2A11.63,11.63,0,0,1,98,254.47a11.5,11.5,0,0,1,4.09-2.86,4.75,4.75,0,0,1,2-.5c0,.08-.74.29-1.85.83a13,13,0,0,0-6.4,7C95.35,260.06,95.21,260.83,95.12,260.82Z" style="fill:#263238"></path><path d="M191.94,218.3c-.16.06-1-2.35-2.46-5.05a18.88,18.88,0,0,0-2.26-3.22,3.11,3.11,0,0,0-.88-.72c-.24-.11-.39-.07-.41-.11s.15-.15.47-.08a2.55,2.55,0,0,1,1.08.65,13.87,13.87,0,0,1,2.45,3.22,21.56,21.56,0,0,1,1.61,3.69A4.66,4.66,0,0,1,191.94,218.3Z" style="fill:#ff9a6c"></path><path d="M188.25,220.16c-.13.06-1.15-1.62-2.76-3.44s-3.08-3.11-3-3.23a10.6,10.6,0,0,1,3.39,2.89A10.14,10.14,0,0,1,188.25,220.16Z" style="fill:#ff9a6c"></path><path d="M192.3,219.19s.27.55,0,1.43a2.81,2.81,0,0,1-.94,1.29,3,3,0,0,1-1.87.61,2.69,2.69,0,0,1-.7-.1l.31-.16a2.15,2.15,0,0,1-1.25,1.24,2,2,0,0,1-1.41,0c-.75-.32-.93-.82-.88-.84a4.49,4.49,0,0,0,1,.51,1.79,1.79,0,0,0,1.13-.08,1.75,1.75,0,0,0,.93-1l.08-.22.23,0a2.2,2.2,0,0,0,.58.08,2.73,2.73,0,0,0,1.58-.47,2.78,2.78,0,0,0,.88-1.06A12.84,12.84,0,0,0,192.3,219.19Z" style="fill:#ff9a6c"></path></g></svg>